<?xml version="1.0" encoding="UTF-8" standalone="no"?>
<svg
   xmlns:dc="http://purl.org/dc/elements/1.1/"
   xmlns:cc="http://creativecommons.org/ns#"
   xmlns:rdf="http://www.w3.org/1999/02/22-rdf-syntax-ns#"
   xmlns:svg="http://www.w3.org/2000/svg"
   xmlns="http://www.w3.org/2000/svg"
   xmlns:xlink="http://www.w3.org/1999/xlink"
   xmlns:sodipodi="http://sodipodi.sourceforge.net/DTD/sodipodi-0.dtd"
   xmlns:inkscape="http://www.inkscape.org/namespaces/inkscape"
   width="755mm"
   height="1334mm"
   viewBox="0 0 755 1334"
   version="1.1"
   id="svg8"
   inkscape:version="1.0.1 (3bc2e813f5, 2020-09-07)"
   sodipodi:docname="background.svg">
  <defs
     id="defs2">
    <linearGradient
       inkscape:collect="always"
       id="linearGradient1973">
      <stop
         style="stop-color:#000000;stop-opacity:1;"
         offset="0"
         id="stop1969" />
      <stop
         style="stop-color:#000000;stop-opacity:0.14860681"
         offset="1"
         id="stop1971" />
    </linearGradient>
    <filter
       inkscape:collect="always"
       style="color-interpolation-filters:sRGB"
       id="filter1921"
       x="-0.010263562"
       width="1.0205271"
       y="-0.011851341"
       height="1.0237027">
      <feGaussianBlur
         inkscape:collect="always"
         stdDeviation="2.1044828"
         id="feGaussianBlur1923" />
    </filter>
    <filter
       inkscape:collect="always"
       style="color-interpolation-filters:sRGB"
       id="filter1957"
       x="-0.082211468"
       width="1.1644229"
       y="-0.080837681"
       height="1.1616754">
      <feGaussianBlur
         inkscape:collect="always"
         stdDeviation="6.1444721"
         id="feGaussianBlur1959" />
    </filter>
    <linearGradient
       inkscape:collect="always"
       xlink:href="#linearGradient1973"
       id="linearGradient1975"
       x1="-162.8372"
       y1="-530.22044"
       x2="1120.3948"
       y2="-542.66333"
       gradientUnits="userSpaceOnUse" />
    <linearGradient
       inkscape:collect="always"
       xlink:href="#linearGradient1973"
       id="linearGradient1977"
       gradientUnits="userSpaceOnUse"
       x1="-162.8372"
       y1="-530.22044"
       x2="1120.3777"
       y2="-542.76154" />
  </defs>
  <sodipodi:namedview
     id="base"
     pagecolor="#ffffff"
     bordercolor="#666666"
     borderopacity="1.0"
     inkscape:pageopacity="0.0"
     inkscape:pageshadow="2"
     inkscape:zoom="0.1767767"
     inkscape:cx="973.70869"
     inkscape:cy="1807.5746"
     inkscape:document-units="mm"
     inkscape:current-layer="g1098"
     inkscape:document-rotation="0"
     showgrid="false"
     inkscape:window-width="1920"
     inkscape:window-height="986"
     inkscape:window-x="-11"
     inkscape:window-y="-11"
     inkscape:window-maximized="1" />
  <metadata
     id="metadata5">
    <rdf:RDF>
      <cc:Work
         rdf:about="">
        <dc:format>image/svg+xml</dc:format>
        <dc:type
           rdf:resource="http://purl.org/dc/dcmitype/StillImage" />
        <dc:title></dc:title>
      </cc:Work>
    </rdf:RDF>
  </metadata>
  <g
     inkscape:label="Layer 1"
     inkscape:groupmode="layer"
     id="layer1"
     transform="translate(99.424263,27.79603)">
    <path
       sodipodi:type="star"
       style="display:inline;fill:#354972;fill-opacity:1;stroke:none;stroke-width:0.264999;stroke-linejoin:round;stroke-miterlimit:4;stroke-dasharray:none;stroke-opacity:1;paint-order:markers fill stroke;filter:url(#filter1921)"
       id="path999-7"
       sodipodi:sides="3"
       sodipodi:cx="460.56747"
       sodipodi:cy="491.39215"
       sodipodi:r1="284.11743"
       sodipodi:r2="142.05872"
       sodipodi:arg1="2.6179939"
       sodipodi:arg2="3.6651914"
       inkscape:flatsided="true"
       inkscape:rounded="0"
       inkscape:randomized="0"
       d="M 214.51456,633.45086 460.56748,207.27472 706.62038,633.45087 Z"
       inkscape:transform-center-x="1.9664301e-06"
       inkscape:transform-center-y="-71.029363"
       inkscape:label="Back Mount" />
    <path
       sodipodi:type="star"
       style="fill:#b4aed4;fill-opacity:1;stroke:none;stroke-width:0.304885;stroke-linejoin:round;stroke-miterlimit:4;stroke-dasharray:none;stroke-opacity:1;paint-order:markers fill stroke"
       id="path999"
       sodipodi:sides="3"
       sodipodi:cx="89.418777"
       sodipodi:cy="506.74307"
       sodipodi:r1="326.88055"
       sodipodi:r2="163.44028"
       sodipodi:arg1="2.6179939"
       sodipodi:arg2="3.6651914"
       inkscape:flatsided="true"
       inkscape:rounded="0"
       inkscape:randomized="0"
       d="M -193.66809,670.18334 89.418785,179.86252 372.50564,670.18336 Z"
       inkscape:transform-center-x="7.7925533e-06"
       inkscape:transform-center-y="-81.720146"
       transform="matrix(1.2530256,0,0,1,34.249713,-3.2072343)"
       inkscape:label="Big Mount" />
    <path
       sodipodi:type="star"
       style="fill:#b4aed4;fill-opacity:1;stroke:none;stroke-width:0.2065;stroke-linejoin:round;stroke-miterlimit:4;stroke-dasharray:none;stroke-opacity:1;paint-order:markers fill stroke"
       id="path999-7-8"
       sodipodi:sides="3"
       sodipodi:cx="516.37207"
       sodipodi:cy="583.47412"
       sodipodi:r1="221.39819"
       sodipodi:r2="110.69909"
       sodipodi:arg1="2.6179939"
       sodipodi:arg2="3.6651914"
       inkscape:flatsided="true"
       inkscape:rounded="0"
       inkscape:randomized="0"
       d="M 324.63561,694.17321 516.37208,362.07593 708.10853,694.17322 Z"
       inkscape:transform-center-x="-3.0346877e-06"
       inkscape:transform-center-y="-55.349558"
       inkscape:label="Small Mount" />
    <text
       xml:space="preserve"
       style="font-style:normal;font-weight:normal;font-size:10.5833px;line-height:1.25;font-family:sans-serif;fill:#000000;fill-opacity:1;stroke:none;stroke-width:0.264583"
       x="73.766388"
       y="124.01305"
       id="text1003"
       inkscape:label="Slacker"><tspan
         sodipodi:role="line"
         id="tspan1001"
         x="73.766388"
         y="124.01305"
         style="font-size:100px;stroke-width:0.264583">Slacker</tspan></text>
    <path
       id="path1035"
       style="display:inline;fill:#5e729c;fill-opacity:1;stroke:none;stroke-width:0.264583px;stroke-linecap:butt;stroke-linejoin:miter;stroke-opacity:1"
       d="M 516.37203,362.07576 324.63542,694.17332 H 457.7415 l 47.54388,-141.58875 -78.20247,31.62906 89.28914,-222.13771 z"
       inkscape:label="Small Mountiain Blue"
       sodipodi:nodetypes="ccccccc" />
    <path
       id="path1037"
       style="fill:#5e729c;fill-opacity:1;stroke:none;stroke-width:0.264583px;stroke-linecap:butt;stroke-linejoin:miter;stroke-opacity:1"
       d="m 288.94043,373.83474 v 0 l -58.47395,156.1605 79.91348,-40.09006 -65.05755,177.07085 h 221.55134 l 10.82156,-32.22595 -39.74073,-54.93359 -10.87167,4.39714 5.09994,-12.37496 z"
       inkscape:label="big Blue"
       sodipodi:nodetypes="ccccccccccc" />
    <path
       id="path1108"
       style="fill:#bdbdc1;fill-opacity:1;stroke:none;stroke-width:0.264583px;stroke-linecap:butt;stroke-linejoin:miter;stroke-opacity:1;filter:url(#filter1957)"
       d="m 460.56769,207.27506 -74.05335,128.26401 c 2.88663,8.30712 4.98213,14.58412 4.98213,14.58412 l 28.43755,-24.69565 17.21186,30.68235 13.47049,-25.44392 23.59287,33.58967 34.24577,-1.77349 7.29781,-23.07017 22.7512,33.82712 27.38594,16.45996 z"
       sodipodi:nodetypes="cccccccccccc" />
    <path
       style="fill:#5e729c;fill-opacity:1;stroke:none;stroke-width:0.264583px;stroke-linecap:butt;stroke-linejoin:miter;stroke-opacity:1"
       d="m 288.94043,373.83474 227.4316,-11.75898 -98.41595,196.25027 -39.5559,-21.38156 z"
       id="path1053"
       inkscape:label="Between Mountains blue"
       sodipodi:nodetypes="ccccc" />
    <path
       id="path1061"
       style="fill:#e5e5e9;fill-opacity:1;stroke:none;stroke-width:0.264583px;stroke-linecap:butt;stroke-linejoin:miter;stroke-opacity:1"
       d="m 146.29385,176.65506 10.00559,165.44985 -17.82166,20.96666 4.4853,66.48352 22.6785,-53.67263 4.727,-28.02715 15.68341,-31.69314 23.38125,63.51563 2.20716,-63.46616 21.77304,29.62588 55.52699,27.99722 z"
       sodipodi:nodetypes="cccccccccccc" />
    <path
       id="path1055"
       style="fill:#5e729c;fill-opacity:1;stroke:none;stroke-width:0.264583px;stroke-linecap:butt;stroke-linejoin:miter;stroke-opacity:1"
       d="m 146.29385,176.65506 -354.7153,490.32097 H 90.300883 l 46.754767,-104.64117 3.20756,-44.90114 -47.039509,-53.45358 8.552449,-57.73031 54.52329,-64.14492 z" />
    <path
       id="path1078"
       style="fill:#e5e5e9;fill-opacity:1;stroke:none;stroke-width:0.264583px;stroke-linecap:butt;stroke-linejoin:miter;stroke-opacity:1"
       d="m 516.37203,362.07576 -56.86142,141.46186 1.93513,14.17235 10.76619,16.29432 21.91597,-26.72652 24.58868,44.36629 13.58522,-29.82662 17.9529,18.06713 9.62165,-43.83249 47.74901,24.07865 z"
       sodipodi:nodetypes="ccccccccccc" />
    <g
       id="g1098"
       inkscape:label="Highline"
       style="stroke:url(#linearGradient1975);stroke-width:2.4;stroke-miterlimit:4;stroke-dasharray:none;stroke-opacity:1"
       transform="matrix(0.2450133,0.02387163,-0.04265835,0.43783615,162.90694,418.12703)">
      <path
         style="fill:none;stroke:url(#linearGradient1975);stroke-width:2.4;stroke-linecap:butt;stroke-linejoin:miter;stroke-miterlimit:4;stroke-dasharray:none;stroke-opacity:1"
         d="m -162.28606,-542.66405 c 0,0 553.03042,52.78339 768.34434,49.87601 215.31391,-2.90738 514.33552,-49.87601 514.33552,-49.87601"
         id="path1092"
         sodipodi:nodetypes="czc" />
      <path
         style="fill:none;stroke:url(#linearGradient1977);stroke-width:2.4;stroke-linecap:butt;stroke-linejoin:miter;stroke-miterlimit:4;stroke-dasharray:none;stroke-opacity:1"
         d="m -162.28606,-542.66405 c 0,0 50.67904,26.20296 94.070709,26.20296 43.391666,0 104.493672,-6.26741 104.493672,-6.26741 0,0 49.780074,40.39582 118.259599,41.49598 68.47953,1.10015 169.88527,-19.94211 169.88527,-19.94211 0,0 58.94545,39.4142 90.16629,39.4142 31.22083,0 107.75393,-29.90062 107.75393,-29.90062 0,0 63.57837,22.00299 93.93442,21.40887 30.35605,-0.59411 95.45259,-24.42916 95.45259,-24.42916 0,0 45.46022,11.42472 71.91855,11.42472 26.45834,0 67.05101,-22.94052 67.05101,-22.94052 0,0 35.76004,5.04471 53.70307,3.25712 22.12092,-2.20381 44.19342,-14.01127 44.19342,-14.01127 0,0 32.74422,0.65973 39.93158,-0.6032 7.18736,-1.26292 31.59865,-8.52618 31.59865,-8.52618 0,0 35.7914,0.84943 55.3933,-2.7757 19.6018,-3.62512 45.3855,-11.49865 45.3855,-11.49865"
         id="path1094"
         sodipodi:nodetypes="csczcsczcscsczczc" />
    </g>
  </g>
</svg>
