<?xml version="1.0" encoding="UTF-8" standalone="no"?>
<svg
   xmlns:dc="http://purl.org/dc/elements/1.1/"
   xmlns:cc="http://creativecommons.org/ns#"
   xmlns:rdf="http://www.w3.org/1999/02/22-rdf-syntax-ns#"
   xmlns:svg="http://www.w3.org/2000/svg"
   xmlns="http://www.w3.org/2000/svg"
   xmlns:sodipodi="http://sodipodi.sourceforge.net/DTD/sodipodi-0.dtd"
   xmlns:inkscape="http://www.inkscape.org/namespaces/inkscape"
   version="1.0"
   id="Australia_1_"
   x="0px"
   y="0px"
   width="1913.8148"
   height="1713.0062"
   viewBox="0 0 1913.8148 1713.0062"
   enable-background="new 0 0 2055.113 1846.109"
   xml:space="preserve"
   sodipodi:docname="south_australia_state.svg"
   inkscape:version="1.0.1 (3bc2e813f5, 2020-09-07)"
   inkscape:export-filename="C:\Users\levi_\Desktop\Flutter_Projects\slacker\assets\images\states\south_australia_state.png"
   inkscape:export-xdpi="50.161594"
   inkscape:export-ydpi="50.161594"><metadata
   id="metadata1024"><rdf:RDF><cc:Work
       rdf:about=""><dc:format>image/svg+xml</dc:format><dc:type
         rdf:resource="http://purl.org/dc/dcmitype/StillImage" /><dc:title></dc:title></cc:Work></rdf:RDF></metadata><defs
   id="defs1022" /><sodipodi:namedview
   pagecolor="#ffffff"
   bordercolor="#666666"
   borderopacity="1"
   objecttolerance="10"
   gridtolerance="10"
   guidetolerance="10"
   inkscape:pageopacity="0"
   inkscape:pageshadow="2"
   inkscape:window-width="1920"
   inkscape:window-height="986"
   id="namedview1020"
   showgrid="false"
   inkscape:zoom="0.43334386"
   inkscape:cx="1060.212"
   inkscape:cy="867.38479"
   inkscape:window-x="-11"
   inkscape:window-y="-11"
   inkscape:window-maximized="1"
   inkscape:current-layer="layer1"
   inkscape:document-rotation="0" />


<g
   inkscape:groupmode="layer"
   id="layer1"
   inkscape:label="MainLayer"
   transform="translate(-77.030135,-90.129843)"><g
     id="g1926"
     inkscape:label="Tasmania"
     style="fill:#ffbbac;fill-opacity:1"><path
       id="path305_1_"
       style="display:inline;fill:#ffbbac;fill-opacity:1;stroke:#000000;stroke-width:3;stroke-miterlimit:4;stroke-dasharray:none;stroke-opacity:1"
       inkscape:label="Tasmania"
       d="m 1569.236,1645.526 c 13.5914,3.2823 26.1061,10.8449 34.4815,21.0573 3.8566,4.7025 31.3435,2.3295 52.729,6.1658 m 0,0 c 15.1416,-1.3814 14.0227,-12.1957 40.5855,-7.6071 8.7675,-15.9445 19.5418,-0.313 27.764,-14.177 28.3946,19.5328 4.7801,38.1238 16.84,71.272 -2.1679,22.0658 -11.1565,-22.936 -8.352,-1.315 -13.5873,8.6351 -7.8595,24.3029 -16.316,40.816 9.5039,-0.1496 11.433,21.9182 -2.147,19.194 -23.4814,-20.4904 19.7715,-8.9182 -5.999,-18.296 -11.2729,18.5951 -14.6338,-13.4508 -16.217,4.59 -3.2071,22.9713 -15.8248,5.4716 -16.0834,11.7062 2.6751,8.8588 1.8745,17.9562 -12.4946,22.3508 -6.1314,-17.144 -31.3279,4.7667 -34.982,-12.089 12.5753,-0.2001 -14.3482,-5.4853 -3.7697,-6.6669 -8.5397,-5.3242 -35.6934,-53.1802 -31.0293,-40.0291 -7.802,-22.1345 32.6758,7.0054 -0.2629,-15.5621 -7.3453,-26.0559 -39.2268,-52.118 -24.7471,-81.4099"
       sodipodi:nodetypes="csccccccccccccccccc" /><path
       id="path207_1_"
       style="fill:#ffbbac;fill-opacity:1;stroke:#000000;stroke-width:3;stroke-miterlimit:4;stroke-dasharray:none;stroke-opacity:1"
       inkscape:label="Flinders"
       d="m 1729.176,1626.146 c -23.856,-17.4314 -6.2814,-42.4692 8.828,-10.11 -4.7226,3.5205 12.1208,5.53 -8.828,10.11 z"
       sodipodi:nodetypes="ccc" /><path
       id="path205_1_"
       style="fill:#ffbbac;fill-opacity:1;stroke:#000000;stroke-width:3;stroke-miterlimit:4;stroke-dasharray:none;stroke-opacity:1"
       inkscape:label="King"
       d="m 1529.907,1618.005 c -13.5183,-49.0059 34.141,-17.6697 0,0 z"
       sodipodi:nodetypes="cc" /></g><path
     style="display:none;fill:#e4c5a7;fill-opacity:1;stroke:#000000;stroke-width:3;stroke-linejoin:round;stroke-miterlimit:4;stroke-dasharray:none;stroke-opacity:1;paint-order:markers fill stroke"
     d="m 1822.56,1408.87 c 9.8832,19.7002 -20.2738,47.8689 -1.261,62.047 -8.8736,12.3315 -27.477,32.2853 -61.7486,27.7445 -50.6356,-27.1806 -135.5814,113.9783 -115.5974,57.4135 24.1884,2.0148 -12.1934,13.5328 -21.552,-8.92 8.2032,1.0179 -93.6125,-49.8966 -27.856,-26.388 -10.8083,23.5913 -40.7339,5.6021 -7.055,-10.002 -36.7733,-17.089 -48.2569,11.2889 -31.613,12.776 -40.6061,53.7807 -80.69,-0.8616 -128.101,-1.172 -12.4635,18.7008 -61.3688,-15.7732 -75.229,-38.082 -33.1142,-22.1627 -7.7451,-87.7362 -53.266,-101.168 22.2851,18.8837 49.837,49.6444 14.095,6.1727 -22.2187,-22.0654 8.7133,9.333 2.141,-14.2847 -31.0631,-5.5067 -6.7275,10.0423 -50.377,11.328 -3.4934,-10.6925 30.6294,-56.4202 -9.356,-79.138 4.3304,35.0309 -52.0334,81.078 -54.258,47.064 42.8745,-4.0223 9.7967,-47.8132 42.05,-70.89 14.1778,-15.5232 0.062,-36.3355 -3.301,-50.704 -3.849,27.2234 -35.3056,50.5819 -41.219,54.808 -16.4086,6.8516 -56.4815,66.6584 -49.177,53.2853 20.5376,0.2019 -6.527,21.7704 -19.027,-2.8533 0.1723,-7.4262 13.1269,7.6581 -3.604,-17.533 -17.1494,-26.3528 -24.728,-70.6801 -46.5737,-62.9586 -20.7352,-13.0091 -3.4645,-46.2042 -6.1563,-32.3026 -23.8424,6.5801 -14.5188,-25.4929 -35.3316,-21.5334 -4.1413,15.201 -61.17258,5.9957 -51.1294,-6.4674 -67.64671,-44.0941 -158.83848,-19.9338 -231.479,11.084 -60.78326,-0.5852 -138.80503,14.1833 -167.961,69.137 -21.3336,38.0504 -54.56463,6.3721 -81.72137,23.6988 -15.22004,-13.1362 -56.65991,-10.6582 -85.44863,-1.8668 -38.42783,-14.4513 -38.40222,31.7312 -58.693,26.908 -23.49789,-7.4489 -73.67618,19.8421 -60.484,28.646 -2.31956,5.1195 -50.92641,0.7437 -72.303,-5.716 8.36754,-6.0804 -79.65763,-21.5058 -65.415,-59.64 14.51819,-18.2444 48.06574,-20.0128 33.028,-65.522 -3.8984,24.4129 8.15569,-0.262 -0.223,-12.742 7.3798,-49.5424 -48.09963,-95.5659 -35.049,-149.466 -30.92212,-54.3023 -45.01449,-123.3894 -83.778,-168.49 11.577997,-2.09002 17.063577,-11.33624 11.226,-1.691 6.314008,13.78099 10.4104,42.42795 21.896,10.974 -35.235216,-28.33887 -11.872766,-60.25687 -4.711,-7.134 6.4128,-25.3978 22.48467,39.66125 21.512,-10.95525 -3.74608,-25.91979 -44.242649,-64.41165 -37.95,-99.09975 32.77056,-34.17942 -4.1918,-98.6737 34.066,-114.889 -9.35307,47.62674 15.81381,30.11931 23.934,-1.524 40.10977,-10.08139 76.83574,-60.78597 101.78663,-64.24 26.21375,19.12181 56.95554,-17.50905 92.38065,-15.99094 27.4889,-32.35083 91.66263,-1.67349 123.79731,-53.67165 -0.8148,-34.33294 53.26749,-50.03255 39.56341,-71.88041 -8.82663,-48.55686 19.85992,-49.04416 19.721,-56.329 14.22704,-3.77449 16.42414,-35.5523 20.762,-5.975 4.4894,9.5884 32.77516,74.9591 24.16338,20.4035 11.55579,8.38856 23.94305,-9.66822 5.24562,-17.5855 -15.10726,-13.23846 -8.22777,-21.53658 -6.694,-16.206 17.1482,0.96141 -8.86102,-7.46928 8.22,-15.156 9.99594,21.78717 2.86178,5.07623 20.635,8.143 21.17617,9.65382 46.35111,9.39454 11.30338,-5.421 7.24461,3.47084 21.33495,-33.52025 4.57962,-12.827 -14.34581,-12.95639 13.97084,-30.63539 8.456,-28.224 -2.7318,-13.47264 21.09334,6.67376 16.271,3.346 13.06354,4.34895 -9.31101,-1.30434 -7.166,-11.007 1.73269,-6.57667 9.75448,-22.28957 14.108,-4.819 -2.62167,-11.21197 23.8215,4.6139 5.325,-9.908 -0.93828,-0.43367 7.45543,-21.16464 -0.808,-16.693 3.15034,-7.33063 23.6718,-7.86459 15.439,-5.154 4.74555,-43.1214 2.50276,18.6906 7.087,-6.06625 8.51532,16.35945 16.90079,0.70318 16.15125,-18.35488 -7.88285,-5.37425 3.35498,2.76737 4.11675,-4.00787 5.87151,25.33798 9.38163,-5.1437 16.67025,-0.79163 -3.26224,19.42349 10.3542,-6.10182 11.04875,-0.70337 5.69365,-0.5313 1.95544,-20.99184 13.984,-6.921 5.14308,7.74482 14.90132,0.45758 28.896,17.593 -0.39471,18.27823 35.27578,21.70387 21.608,35.063 -12.09055,44.49341 8.90423,31.38014 7.469,6.114 -0.79928,7.3587 27.40278,-28.98081 43.669,7.56 -5.42847,10.15789 9.17554,-31.6806 22.313,4.59 -5.87372,-29.73289 30.2883,-15.94713 -2.95725,-27.44238 13.17051,-0.71498 -26.71894,-27.46836 -0.13575,-31.96587 -1.39049,-17.39859 40.50285,-33.77336 24.351,-46.25475 5.23834,-17.4208 12.40697,-32.63145 26.97,-24.392 -15.96901,-3.40496 4.10888,-27.93101 4.326,-6.296 15.79083,5.56328 15.11966,-18.75874 6.444,-12.151 13.94358,-17.93843 12.85464,-2.89079 45.972,-6.663 20.26991,5.33991 37.4642,-19.88672 34.858,-7.592 11.9472,-35.12032 -53.61699,-49.06695 -39.416,-39.072 2.84041,-17.52097 25.44077,1.53165 20.594,1.92 -5.94696,-16.78963 7.4214,-10.09409 17.87488,3.50737 13.64102,-33.125661 60.59192,88.24833 39.93312,18.99363 8.9148,-1.50703 37.2509,-1.32563 27.677,2.654 8.0621,18.43057 35.5282,0.17638 55.132,23.081 3.2194,-7.21321 34.5862,-26.31065 25.874,-18.462 15.3712,-15.75811 -0.3338,32.90612 -1.427,19.651 12.4791,-13.60776 20.2323,2.80532 15.883,-3.386 -4.2795,34.50629 24.7583,-1.42153 21.3004,-14.49675 -3.7987,20.94897 35.5548,8.44707 12.3196,30.16675 2.5637,1.18192 -3.8947,25.34097 -11.073,19.394 9.8294,-3.58581 -13.2709,35.71791 -8.51,7.058 -11.7705,13.35212 -26.1757,18.56101 -22.312,14.864 4.7623,4.05431 -6.0814,27.17661 8.275,17.386 -11.7566,37.90807 -56.1343,65.44096 2.081,87.245 19.993,23.86323 30.307,28.27189 53.816,34.698 48.6232,31.14345 90.1846,59.42038 136.223,88.208 67.3875,-24.39182 65.6184,-122.42561 69.3474,-182.83888 -13.3471,-19.36826 4.6055,-97.45634 16.4466,-69.53335 8.7704,-10.75172 -12.1266,-8.58614 -12.079,-16.28377 -2.8657,-6.27005 25.0692,-15.31101 15.901,-25.338 -15.305,-18.22458 27.3918,-97.252139 22.383,-57.871 27.0196,-5.320333 3.6177,62.02612 23.589,50.77662 24.4313,-20.62721 -13.5011,134.67408 17.793,48.47138 15.1024,14.55083 3.9478,115.65655 51.363,69.96 4.7204,8.86982 24.4627,31.33017 41.342,38.511 -8.0428,19.98983 3e-4,41.66512 6.278,67.827 -6.8418,36.89001 26.1518,27.08803 21.924,45.63 15.8002,39.71941 -1.2493,80.156 35.1644,106.45062 19.4707,7.77223 35.7928,-2.32058 42.6686,25.71238 4.9928,7.95234 16.2747,4.16417 32.432,17.196 7.5711,20.62162 10.9863,-5.09509 18.445,10.046 6.7476,1.56655 20.8216,25.97819 1.495,12.88 -0.5333,24.49709 23.9166,30.86762 21.774,28.677 2.2418,22.93606 17.6077,23.48478 12.972,40.324 -3.0047,23.37493 38.6553,64.15778 23.189,29.941 8.2293,-15.47624 35.791,22.79395 35.813,1.6 1.0205,13.60445 8.8862,8.89142 4.239,30.507 -3.9186,29.48082 14.1303,38.15038 36.741,55.263 6.0703,5.25948 6.1799,-5.49427 16.466,6.327 8.5747,17.47047 73.1999,109.138 48.5793,67.65212 -2.1523,17.74777 23.5845,27.11285 13.2327,25.36288 -3.8176,31.32114 -9.0092,60.82606 0.374,79.886 13.7795,23.77817 15.1525,34.83923 18.794,71.696 -16.8893,33.392 -25.7622,80.5023 -26.029,113.64 -9.9054,31.8288 -19.831,61.7802 -39.737,86.516 -9.48,-3.4306 -43.9496,42.5758 -36.4454,40.4437 -21.1439,2.7104 3.1938,17.942 -12.656,25.658 3.1476,1.9938 -18.0228,28.238 -14.8306,33.4673 -6.3136,31.3742 -0.1974,15.1501 -21.292,43.531 -7.5593,12.8842 -8.9947,21.5853 -15.795,32.425 z"
     id="path1917"
     inkscape:label="AUS" /><path
     style="fill:#ffbbac;fill-opacity:1;stroke:#000000;stroke-width:3;stroke-linejoin:round;stroke-miterlimit:4;stroke-dasharray:none;stroke-opacity:1;paint-order:markers fill stroke"
     d="m 822.76273,885.17417 c 0.72659,97.1119 -1.5626,194.30093 1.46481,291.36613 -0.79836,5.743 3.4332,7.8068 8.0001,4.5341 36.9178,-8.2418 76.12791,-10.8308 113.32816,-3.0671 14.34294,5.1367 30.23248,9.7487 41.82432,19.829 1.12818,10.7316 16.62928,10.6495 24.73498,12.5749 10.5244,1.8811 20.7888,-1.4636 29.0618,-7.4638 13.9263,0.025 15.776,24.849 30.4139,21.2871 3.6802,-3.0673 0.3593,7.911 0.9014,10.3843 -1.477,9.3813 2.3105,24.9633 14.7698,21.3096 18.4119,9.5619 22.5115,33.3052 32.8655,49.7034 3.7379,10.5718 14.4382,19.804 14.9864,30.9241 -5.4736,6.6133 7.7614,12.6506 13.4267,12.2458 4.9837,2.4068 12.3016,-7.4149 4.2862,-6.8192 -7.2595,2.6908 4.3859,-9.0153 4.8722,-10.9342 17.4617,-26.3557 43.7995,-44.3488 65.4386,-66.7232 7.7571,-9.1944 13.8958,-19.8064 17.2217,-31.41 7.4989,16.7464 16.318,40.4363 -0.1668,54.8875 -18.8704,15.7043 -5.7787,45.6399 -23.464,61.4814 -6.7664,1.5194 -19.8007,12.4652 -7.3646,16.0227 17.4155,0.078 29.0726,-17.3877 37.8822,-30.3913 6.1656,-7.8119 6.1908,-19.3465 9.8706,-27.2951 23.2975,12.0894 19.945,43.3256 11.5697,63.8972 -1.5759,4.5933 -6.1774,14.9023 2.7899,13.5123 13.3599,1.0339 22.7983,-9.8075 34.9526,-12.1061 8.4843,-1.8937 12.7688,7.3856 7.4682,12.9445 3.7356,12.0448 18.0908,19.8334 15.5796,33.7318 4.6584,22.1508 4.528,48.249 23.1096,64.256 8.8051,9.4676 17.4459,19.3782 27.5923,27.3952 3.4219,-11.5299 0.5416,-26.5768 1.741,-39.2202 1.3226,-195.6158 0.6241,-391.2381 0.8055,-586.85683 -89.6229,-1.76696 -180.605,-0.25226 -270.7506,-0.75719 -96.1516,0 -192.30307,0 -288.45458,0 z"
     id="path1885"
     inkscape:label="SA" /><path
     style="fill:#ffbbac;fill-opacity:1;stroke:#000000;stroke-width:3;stroke-linejoin:round;stroke-miterlimit:4;stroke-dasharray:none;stroke-opacity:1;paint-order:markers fill stroke"
     d="m 978.70725,113.85965 c -0.14836,15.01222 17.76189,19.34207 20.82068,33.00459 1.40597,3.57402 1.26287,11.84619 -1.24611,12.82131 -11.30442,0.37709 -19.63312,13.61141 -31.85369,9.61125 -14.41459,0.53855 -29.6442,-3.24045 -43.67189,0.52342 -4.60141,3.67609 3.65076,6.48384 0.77125,11.03978 0.42446,7.41825 -12.17557,11.1856 -13.22287,2.63246 -0.46113,-5.22454 -7.1875,-4.87909 -7.993,0.0319 -2.94087,3.86401 0.40796,7.90218 3.92001,9.74586 -8.38423,-3.46488 -17.18246,1.50803 -19.87734,9.81915 -4.03925,6.28759 -5.83841,13.73074 -2.56872,20.69321 -1.40006,11.48053 -13.8794,17.48991 -20.24065,26.23859 -6.2435,4.10737 -4.51314,14.53411 -12.48668,16.26965 -8.50521,4.24158 -0.2981,14.5205 2.98941,19.56182 3.96571,4.74861 3.66897,13.36824 11.71861,13.40771 2.64116,0.49165 6.50281,3.90273 1.18875,4.29608 -7.19574,3.59865 -8.5456,12.42647 -9.01284,19.62239 -2.29418,-6.06438 -9.25592,-18.42456 -16.81781,-11.22781 -3.09181,1.64346 -4.6532,12.49703 -6.47918,5.16294 -2.66232,-4.84248 -6.99208,-11.49547 -12.04368,-12.31459 0,192.73504 0,385.47007 0,578.20511 32.80468,1.76286 66.96561,0.25144 100.29178,0.75532 114.76612,0 229.53212,0 344.29822,0 1.7629,-32.80469 0.2515,-66.96562 0.7553,-100.29178 -0.2295,-127.86633 0.459,-255.96572 -0.3442,-383.68641 -23.7225,-15.5878 -47.5023,-31.90365 -74.324,-41.52346 -17.2213,-8.40154 -27.5404,-26.21846 -45.571,-33.4444 -10.2542,-5.56195 -18.7815,-17.60514 -13.0763,-29.35867 5.594,-16.2233 17.7905,-29.66027 22.6214,-46.02031 -0.9738,-3.25915 -6.7262,-2.60601 -4.9207,-7.63924 0.8538,-4.78876 -1.764,-12.61619 2.4699,-15.63225 7.8494,-2.46285 13.2329,-10.53093 19.7945,-14.26821 0.88,5.87141 1.57,14.55269 6.2387,4.37003 3.103,-3.01001 2.6795,-8.25738 3.9629,-11.31132 9.5587,-2.94258 6.8512,-16.51032 12.5344,-23.24281 2.5174,-2.51907 5.9518,-7.45945 0.7299,-9.21044 -5.1555,-2.74716 -10.7263,-6.31983 -16.2569,-7.25043 -5.1168,6.5009 -9.1252,19.54601 -19.0679,18.98179 -4.9827,-4.15869 0.7786,-17.02129 -8.9778,-16.037 -5.0372,-0.56168 -4.6823,7.38855 -8.3786,7.09427 -2.6294,-3.86928 5.2382,-6.99918 4.7614,-11.40628 0.5547,-3.02404 4.8038,-11.82564 -0.596,-12.02138 -10.6917,4.55952 -21.052,11.99033 -29.1451,19.66381 -9.7478,-7.05469 -20.9856,-13.01108 -33.505,-12.13292 -8.7794,0.0775 -18.4381,-3.39427 -22.4333,-11.61344 -8.1519,-2.62539 -18.4267,-1.72339 -26.1493,-0.49717 0.9172,6.13065 5.229,14.65874 3.9773,20.04943 -13.5869,-13.65795 -19.8783,-34.47389 -36.6728,-44.87936 -4.3348,-2.27403 -6.27846,3.73074 -8.50292,4.98128 -5.25296,-5.06823 -11.40512,-13.17888 -18.40813,-13.57344 z"
     id="path1893"
     inkscape:label="NT" /><path
     style="fill:#c55f71;fill-opacity:1;stroke:#000000;stroke-width:3;stroke-linejoin:round;stroke-miterlimit:4;stroke-dasharray:none;stroke-opacity:1;paint-order:markers fill stroke"
     d="m 1456.4376,99.229183 c -9.5289,16.250997 -17.3086,35.140407 -16.5501,54.284217 1.5027,5.26232 7.3215,11.21052 1.6668,16.20909 -4.0874,5.94126 -13.5329,9.52644 -14.3319,17.03772 3.3538,5.02365 17.7572,6.63295 12.3433,14.63471 -3.0027,-0.3977 -5.5952,-7.49705 -9.4176,-2.78863 -10.5684,16.03555 -11.6848,36.71525 -11.8461,55.42835 1.1154,11.84679 5.8585,23.3198 3.2484,35.44567 -3.5331,47.60607 -3.8251,99.99246 -34.0763,139.69605 -8.8481,11.7864 -21.3102,20.12911 -34.6013,26.15253 -27.5934,-17.88658 -55.1797,-35.78428 -82.7888,-53.6468 -2.7198,12.42339 -0.3902,27.84888 -1.1664,41.42784 0,146.71686 0,293.4337 0,440.15054 32.6687,1.76285 66.694,0.25052 99.8838,0.75531 13.8657,-3.91899 15.3288,4.56449 13.5225,16.31746 0,45.98101 0,91.96201 0,137.94306 34.7836,1.7768 70.9346,1.2545 106.2372,2.3067 96.6242,1.4593 193.2661,4.3778 289.8817,4.8353 5.9144,0.7073 8.6619,-4.1948 11.3808,-8.0312 6.6662,-3.8313 9.5528,-13.0074 17.9301,-15.0076 10.2366,-3.876 24.0113,-7.8748 31.998,2.3606 11.1637,9.8211 21.0633,24.6187 37.8483,23.8939 17.5432,-0.1388 34.7898,2.0652 52.1872,3.0309 16.2117,-3.0892 27.8485,-16.8706 37.1987,-29.4543 4.2219,-7.2881 17.3942,-3.9126 18.9499,-12.7257 -0.8881,-20.86222 -12.3852,-38.90836 -18.9882,-58.10545 -5.8221,-23.74478 1.4327,-48.37638 2.6229,-72.14417 -12.3269,-9.062 -16.5671,-25.01547 -26.3852,-36.37963 -14.1955,-18.88744 -24.9408,-40.48191 -40.5291,-58.21697 -3.8767,-2.76777 -9.1018,0.87553 -12.7352,-3.47702 -13.3776,-9.21535 -28.4382,-19.65132 -34.2571,-35.50002 -2.9708,-13.68868 2.9616,-29.51312 -4.022,-42.2501 -5.3958,-1.58419 -11.6365,-2.03398 -16.5692,-5.68447 -5.052,-1.76948 -13.1947,-9.1312 -17.9939,-3.69806 -1.8624,4.22912 5.1924,12.85047 -1.5967,13.49377 -12.223,-7.68526 -20.381,-21.91457 -23.3926,-35.8729 -0.036,-10.00525 -0.3651,-20.71833 -7.3237,-28.8105 -4.6345,-5.14352 -3.8661,-13.64697 -8.8949,-18.07987 -11.0294,-4.33727 -20.538,-16.89889 -18.2679,-28.76907 2.3841,1.33952 9.4386,4.05055 7.2855,-1.32261 -3.6569,-5.93059 -8.8474,-15.23722 -16.8338,-14.5869 -7.8485,4.61935 -11.4416,-8.01545 -17.8695,-10.55217 -9.0756,-7.22802 -25.7623,-6.17337 -28.2177,-20.08131 -5.2278,-15.98664 -25.1183,-13.48107 -37.7309,-18.66308 -18.5062,-8.31515 -25.6856,-30.4734 -27.7264,-49.14639 -2.3488,-21.82059 -4.7315,-44.12701 -11.4674,-65.04709 -7.407,-8.30526 -20.9445,-12.84246 -20.7633,-25.99002 -0.6656,-26.35006 -13.1455,-52.10923 -7.5851,-78.62652 -4.6078,-7.34149 -14.3537,-10.06861 -19.7339,-17.09828 -7.6224,-6.56258 -13.6646,-15.64695 -21.439,-21.37203 -6.4905,7.88706 -20.3818,15.31157 -28.2623,4.96854 -13.3083,-21.73886 -10.399,-49.05615 -19.2654,-72.38002 -4.4168,-2.30722 -4.9719,7.60314 -7.1134,9.71717 -2.1198,3.6405 -3.9005,10.46359 -7.4672,11.9672 -0.93,-23.78588 4.654,-47.74526 1.9027,-71.41754 -2.1348,-8.84774 -13.0394,3.28373 -14.9917,-5.08964 -4.0672,-15.15514 1.4091,-33.13601 -7.5787,-46.75652 -2.8693,-3.25178 -10.2401,-0.1621 -9.2678,-6.622588 0.251,-10.968239 -3.8362,-2.715596 -7.0401,1.338541 z"
     id="path1903"
     inkscape:label="QLD" /><path
     style="fill:#ffbbac;fill-opacity:1;stroke:#000000;stroke-width:3;stroke-linejoin:round;stroke-miterlimit:4;stroke-dasharray:none;stroke-opacity:1;paint-order:markers fill stroke"
     d="m 1382.3016,1300.2861 c 0.5477,71.3029 0.023,142.9088 1.2429,214.0232 13.2034,6.9188 29.7812,17.8042 44.669,8.8503 17.9697,-2.1748 34.7201,8.4477 51.4709,13.7021 18.2882,7.122 41.2547,15.9251 58.8511,2.2641 4.7814,-4.2277 13.5509,-8.5027 13.4963,-15.4914 -7.5363,-6.1093 -1.0667,-17.5716 7.687,-17.8313 9.2602,-1.5656 20.0812,0.3264 27.66,5.2809 -4.2043,0.4907 -5.9846,5.6873 -0.7457,6.3517 4.5836,0.2045 9.4928,3.18 5.9883,7.9325 3.3347,7.6652 13.886,9.54 19.9785,14.6732 6.9436,3.2082 11.2946,9.0225 16.092,14.4655 3.3383,2.2139 12.1995,8.4901 14.6061,2.607 4.4778,-3.2031 9.0795,4.0806 12.6938,-1.568 25.3677,-20.7319 46.6285,-49.7182 79.1651,-59.4472 15.2424,-4.1324 30.081,5.8527 45.4276,1.38 11.7791,-2.201 24.2294,-7.7519 31.2963,-17.1556 -23.8806,-23.0172 -62.3244,-26.5657 -81.0518,-55.7025 -12.1191,-18.9322 -29.245,-33.7381 -47.7923,-46.0649 -19.1987,1.0342 -38.931,-2.0378 -57.8505,1.7082 -7.5564,5.9927 -16.875,8.1851 -26.4457,7.156 -17.6501,1.4786 -32.6572,-9.4913 -43.6392,-22.2734 -8.6194,-3.7523 -20.0199,-0.1046 -29.655,-1.1235 -14.4689,-1.1066 -30.2829,3.294 -44.0162,-2.5433 -8.6205,-7.3218 -8.6684,-22.1386 -19.8964,-26.6242 -5.8255,-4.7474 -9.82,-13.067 -18.7428,-10.1474 -12.5406,-0.345 -26.9476,2.446 -36.8704,-7.3046 -8.7968,-4.0148 -15.6113,-10.8452 -22.3346,-17.6624 z"
     id="path1907"
     inkscape:label="VIC" /><path
     style="fill:#ffbbac;fill-opacity:1;stroke:#000000;stroke-width:1.80389;stroke-linejoin:round;stroke-miterlimit:4;stroke-dasharray:none;stroke-opacity:1;paint-order:markers fill stroke"
     d="m 1750.71,1264.1961 c -3.3539,-0.1968 -6.2061,2.1976 -8.8852,3.9178 -4.0248,2.9557 -3.9944,8.465 -5.0782,12.8737 -0.627,2.4718 0.6434,4.8333 0.5719,7.306 1.998,7.2813 2.2194,15.0209 0.3606,22.3458 -0.456,3.2414 -1.553,6.3164 -3.3318,9.0627 -1.8914,4.4277 -2.6584,9.2361 -4.0001,13.8416 1.8798,4.0528 6.9161,4.6991 10.7676,5.8421 3.7481,0.674 7.5485,2.167 11.3897,1.6394 3.4312,-1.0432 6.9377,-2.8146 9.1533,-5.7058 3.3826,-6.5244 4.1601,-14.0125 5.6578,-21.1149 0.7457,-2.953 0.7299,-6.2412 1.9631,-8.9795 4.4552,-6.067 9.0415,-12.0791 13.2129,-18.3309 -0.1982,-1.6961 -2.8334,0.3275 -3.3316,-1.3578 -2.2622,-4.1475 -4.3769,-8.5997 -7.8584,-11.8785 -5.8923,-4.9511 -13.192,-7.6875 -20.5916,-9.4617 z"
     id="path1911"
     inkscape:label="ACT" /><path
     style="fill:#ffbbac;fill-opacity:1;stroke:#000000;stroke-width:3;stroke-linejoin:round;stroke-miterlimit:4;stroke-dasharray:none;stroke-opacity:1;paint-order:markers fill stroke"
     d="m 727.71837,249.19988 c -3.76909,3.51752 -3.91892,10.78986 -9.68125,13.67455 -3.37203,4.1731 -8.90771,6.28643 -11.05141,1.08171 -5.23148,2.40793 -8.81612,13.37649 -13.36807,3.07384 -6.25773,-0.19828 -3.37685,11.78022 -6.25136,16.14895 -4.38395,14.87067 -25.03908,0.60192 -32.83423,10.57366 -2.26506,7.69897 -3.01148,17.81074 3.8085,22.96819 -5.77663,2.69062 -15.30327,5.51683 -17.47854,-2.69525 -8.55715,2.38613 -10.47517,17.06917 -1.86143,21.6386 5.75093,5.88469 -7.1713,-1.96316 -8.85041,-3.21128 -7.39826,-5.29322 -11.78004,8.7416 -16.2812,13.58663 -4.57074,4.14882 -4.22903,16.17056 4.0654,10.5962 9.34498,-4.66949 0.90723,10.39063 -0.45972,12.92636 -8.21643,8.96667 9.23643,8.79845 9.34322,16.57262 -14.04095,5.19812 -28.50814,-10.59176 -42.49295,-2.21299 -3.19785,-1.48415 -7.33999,-14.19909 -10.38436,-5.91782 0.7611,5.02816 2.56279,10.54621 -4.21414,10.25366 -4.13796,7.36449 7.89636,13.30591 11.69141,18.48362 10.51878,6.38282 2.05435,17.58452 -6.77416,18.85771 -4.10808,4.52616 1.96835,16.11445 -4.96232,16.77544 -12.22447,-14.81248 -22.61116,-33.09553 -26.06459,-52.02097 -5.93607,3.91549 -10.36405,12.90897 -16.76456,17.59791 -7.80392,9.72501 -24.1757,15.79237 -19.52675,30.77643 -1.0488,13.60874 2.52051,29.02875 -1.25727,41.56833 -15.45088,17.01667 -34.75866,32.54969 -40.55048,55.80799 -14.76797,28.62712 -49.87774,31.90542 -78.25495,35.93864 -15.87492,2.58967 -33.17691,5.45523 -45.11795,16.97474 -22.72445,2.89664 -43.72655,13.63361 -65.62791,20.3 -13.67872,5.26298 -28.98775,-7.84857 -41.41576,3.33525 -26.92802,19.1496 -51.57172,41.82316 -81.4208,56.44243 -11.64585,7.65231 -11.53202,28.37271 -26.42063,31.26127 -9.29665,-5.15235 -1.04916,-19.66925 -7.33757,-25.52823 -16.23211,10.19865 -11.80128,33.67248 -13.09555,49.96114 0.256,21.28093 -2.01901,43.0241 -14.262556,61.02625 -5.493141,23.13495 12.248056,43.8803 20.804786,63.98733 7.41372,15.71078 21.97979,34.56154 13.99455,52.46716 -5.63343,7.02908 -6.32862,-4.01009 -10.17253,-6.675 -2.45748,-7.2292 -11.28144,-3.45658 -8.44631,3.13243 6.69994,8.57292 -4.8628,15.61866 -7.69813,22.56707 12.73838,30.56289 27.16618,60.88165 39.55481,91.77315 8.35567,22.9435 25.07508,43.8731 21.74023,69.5217 2.32646,43.6617 35.47356,79.1011 37.08156,123.0424 -0.42573,19.5166 7.87276,42.83 -5.36353,59.6538 -10.2395,12.2356 -33.99185,20.5896 -28.4308,40.325 13.86116,22.6439 42.51002,28.9292 64.82565,40.2755 21.12932,8.8405 45.28729,11.2744 67.77329,8.6581 2.55281,-5.3572 3.75886,-12.5007 10.51957,-15.3782 18.18114,-12.7825 40.99669,-15.3063 62.5676,-15.1349 10.00873,-8.7598 17.98452,-22.9152 29.19504,-28.4809 32.71898,4.9487 66.01748,-11.5681 98.00245,0.024 17.21827,4.3595 34.93519,-2.6356 52.50502,-0.6828 13.41967,1.3134 28.17767,-2.3893 34.65978,-15.3945 30.57572,-51.0031 92.8126,-69.8135 149.14901,-70.8517 30.41047,-1.4686 58.06701,-16.8146 86.60395,-24.9738 3e-5,-292.82645 0,-585.65287 0,-878.47929 -13.87422,-4.61883 -28.61268,6.84362 -30.13897,21.15634 0.25979,5.98309 -10.18602,12.01672 -10.60973,3.29019 -1.5091,-11.40393 6.46418,-22.40736 4.68739,-33.36608 -8.38134,-8.0322 -19.18846,-14.14028 -23.83807,-25.54175 -8.82772,-10.04202 -22.77318,-13.73992 -33.19029,-21.54395 l -0.45071,-0.005 z"
     id="path1879"
     inkscape:label="WA" /><path
     style="fill:#ffbbac;fill-opacity:1;stroke:#000000;stroke-width:2.44762;stroke-linejoin:round;stroke-miterlimit:4;stroke-dasharray:none;stroke-opacity:1;paint-order:markers fill stroke"
     d="m 1985.2817,1014.3504 c -6.7568,3.0103 -14.9033,4.2455 -19.2418,10.9553 -9.1786,11.2485 -19.718,23.7527 -34.5835,26.9366 -15.1843,0.1831 -30.387,-1.9839 -45.618,-2.2135 -10.5069,-0.1852 -22.0197,-0.9418 -29.9474,-8.7227 -8.3364,-6.4822 -14.7319,-15.481 -23.9503,-20.7458 -8.704,-2.6778 -18.1867,0.2786 -26.1717,3.912 -8.5629,6.2819 -14.7215,15.4966 -23.4611,21.4884 -47.6073,0.7372 -95.2334,-0.7667 -142.8406,-1.4067 -80.8121,-1.7424 -161.6391,-2.8208 -242.4478,-4.6586 -4.2261,0.3452 -9.2066,-1.5732 -12.9148,0.099 0,86.2244 0,172.4487 0,258.6731 8.7351,9.3945 19.4227,17.2376 30.9043,23.0372 11.7702,3.8307 24.6206,-0.1908 36.3956,2.8348 5.3054,3.245 8.949,8.7026 14.5439,11.7011 7.4503,6.0972 8.5415,16.7812 15.339,23.2859 8.1344,5.0755 18.4503,3.0519 27.5517,3.5869 14.8365,0.1442 29.8549,-1.1402 44.5909,0.3442 9.5048,6.3052 16.4013,16.615 27.77,20.059 13.4335,3.7676 29.0602,4.8694 41.4629,-2.6532 13.035,-5.2712 27.6399,-3.0725 41.4406,-3.3527 6.9136,0.4784 14.2408,-0.2723 20.8975,0.9697 18.8761,12.7701 35.849,28.5453 48.2986,47.7054 14.262,19.4908 38.1945,27.2864 58.394,38.8049 7.3628,3.906 14.3968,8.4686 20.5768,14.0882 2.4264,-1.7747 9.5861,-6.6384 5.5306,-9.9512 -7.1653,-8.2639 -2.4191,-19.8007 0.1918,-28.9233 3.5503,-9.9258 7.4712,-21.0801 3.7143,-31.4706 7.4505,-14.3091 12.2683,-30.1965 23.1978,-42.4606 4.3827,-5.6483 10.2178,-10.8332 10.7039,-18.4638 1.8742,-6.4306 1.8609,-13.2166 3.4579,-19.6478 4.0769,-10.2256 11.0691,-19.0936 15.1367,-29.2695 2.3341,-2.5476 6.143,-5.0707 4.6737,-9.1307 -0.4731,-4.6186 -4.3608,-11.8359 1.1617,-14.869 6.7814,-2.2284 7.8344,-10.3043 12.3671,-14.986 8.0587,-10.0592 15.881,-21.3998 27.7142,-27.2848 6.8705,-2.6839 9.6523,-10.5177 13.7674,-16.0772 12.6415,-21.4206 20.7463,-45.1965 27.6653,-68.9743 1.9099,-13.8687 1.7674,-27.99 4.5255,-41.7545 4.1427,-25.3149 11.4739,-50.1088 22.0811,-73.4604 -0.9731,-5.9069 -0.7605,-12.2799 -2.4205,-17.9317 l -0.3952,-0.078 z m -235.2821,249.5439 c 11.272,2.0361 23.1576,7.8142 28.0154,18.5929 0.7033,2.2057 3.2592,3.0574 4.6243,3.885 -4.2603,9.5047 -13.6631,16.4617 -14.7639,27.3316 -2.2363,7.9601 -1.8768,17.7273 -8.0598,23.9552 -7.5694,6.3267 -18.372,2.8973 -26.4378,-0.537 -2.9065,-1.4277 -4.2121,-4.5608 -2.5545,-7.56 2.0871,-9.2449 7.8881,-17.647 7.053,-27.4763 0.6918,-10.8108 -4.5687,-22.9882 2.3982,-32.5632 2.3887,-2.7968 5.909,-5.529 9.7251,-5.6282 z"
     id="path1921"
     inkscape:label="NSW" /></g></svg>
